<?xml version="1.0" encoding="UTF-8" standalone="no"?>
<!DOCTYPE svg PUBLIC "-//W3C//DTD SVG 1.1//EN" "http://www.w3.org/Graphics/SVG/1.1/DTD/svg11.dtd">
<svg width="100%" height="100%" viewBox="0 0 64 64" version="1.1" xmlns="http://www.w3.org/2000/svg" xmlns:xlink="http://www.w3.org/1999/xlink" xml:space="preserve" xmlns:serif="http://www.serif.com/" style="fill-rule:evenodd;clip-rule:evenodd;stroke-linejoin:round;stroke-miterlimit:2;">
    <g>
        <rect x="0" y="0" width="64" height="64" style="fill:white;"/>
        <path d="M23.14,31.17L7.218,31.17L9.607,26.884L20.751,26.884L23.14,31.17ZM23.14,32.953L20.751,37.239L9.607,37.239L7.218,32.953L23.14,32.953ZM56.782,32.074L54.323,36.45L51.3,31.17L33.193,31.17L35.582,26.884L53.89,26.884L56.782,32.074ZM50.359,32.953L52.747,37.239L35.582,37.239L33.193,32.953L50.359,32.953ZM35.241,39.854L43.202,53.643L38.296,53.716L32.724,44.065L35.241,39.854ZM36.786,38.962L41.691,38.888L47.263,48.539L44.747,52.751L36.786,38.962ZM19.203,10.266L24.222,10.208L21.161,15.466L30.215,31.148L25.308,31.221L16.155,15.366L19.203,10.266ZM23.176,15.39L25.694,11.179L34.276,26.044L31.759,30.256L23.176,15.39ZM36.759,25.019L44.72,11.23L47.236,15.442L41.664,25.093L36.759,25.019ZM35.214,24.127L32.697,19.916L38.269,10.265L43.175,10.338L35.214,24.127ZM19.154,53.702L16.594,49.384L22.678,49.407L31.732,33.725L34.249,37.937L25.095,53.792L19.154,53.702ZM21.605,47.699L16.699,47.625L25.281,32.76L30.188,32.833L21.605,47.699Z" style="fill:rgb(32,79,245);"/>
    </g>
</svg>
