<?xml version="1.0" encoding="UTF-8" standalone="no"?>
<!DOCTYPE svg PUBLIC "-//W3C//DTD SVG 1.1//EN" "http://www.w3.org/Graphics/SVG/1.1/DTD/svg11.dtd">
<svg width="100%" height="100%" viewBox="0 0 64 64" version="1.1" xmlns="http://www.w3.org/2000/svg" xmlns:xlink="http://www.w3.org/1999/xlink" xml:space="preserve" xmlns:serif="http://www.serif.com/" style="fill-rule:evenodd;clip-rule:evenodd;stroke-linejoin:round;stroke-miterlimit:2;">
    <path d="M27.994,3.944L36.006,3.944L63.097,50.866L57.046,54.36C57.046,54.36 43.233,30.436 40.292,25.341C40.256,25.278 40.179,25.252 40.112,25.28C40.045,25.307 40.009,25.38 40.028,25.45C41.542,31.099 48.613,57.488 48.613,57.488L44.224,58.663C44.224,58.663 36.161,28.572 34.536,22.509C34.518,22.44 34.45,22.395 34.379,22.404C34.307,22.413 34.253,22.475 34.253,22.547L34.253,60.056L29.747,60.056L29.747,22.547C29.747,22.475 29.693,22.413 29.622,22.404C29.55,22.395 29.483,22.44 29.464,22.509C27.839,28.572 19.776,58.663 19.776,58.663L15.387,57.488C15.387,57.488 22.458,31.099 23.972,25.45C23.991,25.38 23.955,25.307 23.888,25.28C23.821,25.252 23.745,25.278 23.708,25.341C20.767,30.436 6.954,54.36 6.954,54.36L0.903,50.866L27.994,3.944Z" style="fill:rgb(3,199,178);"/>
</svg>
