<?xml version="1.0" encoding="UTF-8" standalone="no"?>
<!DOCTYPE svg PUBLIC "-//W3C//DTD SVG 1.1//EN" "http://www.w3.org/Graphics/SVG/1.1/DTD/svg11.dtd">
<svg width="100%" height="100%" viewBox="0 0 820 195" version="1.1" xmlns="http://www.w3.org/2000/svg" xmlns:xlink="http://www.w3.org/1999/xlink" xml:space="preserve" xmlns:serif="http://www.serif.com/" style="fill-rule:evenodd;clip-rule:evenodd;stroke-linejoin:round;stroke-miterlimit:2;">
	<path d="M98.303,97.769L98.303,194.658L0,97.743L0,0L98.277,96.889L98.277,0L196.58,96.915L196.58,194.658L98.303,97.769Z" style="fill:rgb(14,97,255);" />
	<g>
		<path d="M317.923,127.462L354.256,127.462L354.256,145.424L299.144,145.424L299.144,50.169L317.923,50.169L317.923,127.462Z" style="fill-rule:nonzero;" />
		<path d="M442.435,145.424L436.719,128.279L398.753,128.279L393.038,145.424L372.762,145.424L406.102,50.169L429.371,50.169L462.847,145.424L442.435,145.424ZM404.741,110.724L430.868,110.724L417.804,71.806L404.741,110.724Z" style="fill-rule:nonzero;" />
		<path d="M546.867,50.169L514.208,108.275L514.208,145.424L495.565,145.424L495.565,108.275L463.042,50.169L484.27,50.169L504.954,89.904L525.638,50.169L546.867,50.169Z" style="fill-rule:nonzero;" />
		<path d="M587.369,127.462L627.512,127.462L627.512,145.424L568.59,145.424L568.59,50.169L626.832,50.169L626.832,68.132L587.369,68.132L587.369,88.407L623.43,88.407L623.43,106.098L587.369,106.098L587.369,127.462Z" style="fill-rule:nonzero;" />
		<path d="M706.574,145.424L687.387,112.357L673.099,112.357L673.099,145.424L654.32,145.424L654.32,50.169L692.422,50.169C701.222,50.169 708.706,53.254 714.875,59.423C721.044,65.591 724.129,73.03 724.129,81.74C724.129,87.636 722.45,93.102 719.094,98.137C715.737,103.172 711.292,106.959 705.758,109.5L726.85,145.424L706.574,145.424ZM673.099,67.723L673.099,95.892L692.422,95.892C695.96,95.892 698.999,94.508 701.539,91.741C704.08,88.974 705.35,85.64 705.35,81.74C705.35,77.839 704.08,74.527 701.539,71.806C698.999,69.084 695.96,67.723 692.422,67.723L673.099,67.723Z" style="fill-rule:nonzero;" />
		<path d="M819.656,111.813L819.656,129.231L809.45,129.231L809.45,145.424L790.535,145.424L790.535,129.231L745.493,129.231L745.493,111.813L777.199,50.169L797.339,50.169L765.769,111.813L790.535,111.813L790.535,89.224L809.45,89.224L809.45,111.813L819.656,111.813Z" style="fill-rule:nonzero;" />
	</g>
</svg>
