<?xml version="1.0" encoding="UTF-8" standalone="no"?>
<!DOCTYPE svg PUBLIC "-//W3C//DTD SVG 1.1//EN" "http://www.w3.org/Graphics/SVG/1.1/DTD/svg11.dtd">
<svg width="100%" height="100%" viewBox="0 0 489 90" version="1.1" xmlns="http://www.w3.org/2000/svg" xmlns:xlink="http://www.w3.org/1999/xlink" xml:space="preserve" xmlns:serif="http://www.serif.com/" style="fill-rule:evenodd;clip-rule:evenodd;stroke-linejoin:round;stroke-miterlimit:2;">
    <g>
        <g>
            <path d="M163.803,18.859L166.604,31.967L144.568,31.967L144.568,40.818L161.057,40.818L161.057,53.626L144.568,53.626L144.568,72.947L131.393,72.947L131.393,18.859L163.803,18.859Z" style="fill:white;fill-rule:nonzero;"/>
            <path d="M199.119,73.486C194.034,73.486 189.372,72.305 185.135,69.942C180.897,67.579 177.532,64.279 175.041,60.041C172.55,55.803 171.304,51.039 171.304,45.749C171.304,40.458 172.55,35.707 175.041,31.495C177.532,27.283 180.897,23.995 185.135,21.632C189.372,19.27 194.034,18.088 199.119,18.088C204.204,18.088 208.865,19.27 213.103,21.632C217.341,23.995 220.68,27.283 223.119,31.495C225.559,35.707 226.779,40.458 226.779,45.749C226.779,51.039 225.546,55.803 223.081,60.041C220.615,64.279 217.277,67.579 213.065,69.942C208.853,72.305 204.204,73.486 199.119,73.486ZM199.119,61.467C203.434,61.467 206.888,60.028 209.482,57.152C212.076,54.275 213.373,50.474 213.373,45.749C213.373,40.972 212.076,37.158 209.482,34.307C206.888,31.456 203.434,30.031 199.119,30.031C194.753,30.031 191.273,31.443 188.679,34.268C186.085,37.094 184.788,40.92 184.788,45.749C184.788,50.526 186.085,54.34 188.679,57.19C191.273,60.041 194.753,61.467 199.119,61.467Z" style="fill:white;fill-rule:nonzero;"/>
            <path d="M295.353,18.859L295.353,72.947L282.177,72.947L282.177,40.509L270.081,72.947L259.448,72.947L247.274,40.432L247.274,72.947L234.099,72.947L234.099,18.859L249.663,18.859L264.841,56.304L279.866,18.859L295.353,18.859Z" style="fill:white;fill-rule:nonzero;"/>
        </g>
        <g>
            <path d="M336.147,45.286C338.099,45.595 339.883,46.391 341.501,47.675C343.12,48.959 344.404,50.551 345.354,52.452C346.304,54.352 346.779,56.381 346.779,58.539C346.779,61.261 346.086,63.714 344.699,65.897C343.312,68.08 341.296,69.801 338.651,71.059C336.005,72.318 332.885,72.947 329.289,72.947L309.257,72.947L309.257,19.244L328.519,19.244C332.166,19.244 335.273,19.847 337.842,21.055C340.41,22.262 342.336,23.893 343.62,25.947C344.904,28.002 345.547,30.313 345.547,32.882C345.547,36.066 344.686,38.699 342.965,40.779C341.245,42.859 338.972,44.362 336.147,45.286ZM316.268,42.436L328.057,42.436C331.344,42.436 333.887,41.665 335.684,40.124C337.482,38.583 338.381,36.451 338.381,33.729C338.381,31.007 337.482,28.875 335.684,27.334C333.887,25.793 331.293,25.023 327.902,25.023L316.268,25.023L316.268,42.436ZM328.673,67.168C332.166,67.168 334.888,66.346 336.84,64.703C338.792,63.059 339.768,60.773 339.768,57.845C339.768,54.866 338.741,52.516 336.686,50.795C334.631,49.075 331.883,48.214 328.442,48.214L316.268,48.214L316.268,67.168L328.673,67.168Z" style="fill:white;fill-rule:nonzero;"/>
            <path d="M374.902,73.64C370.947,73.64 367.364,72.741 364.154,70.944C360.943,69.146 358.426,66.59 356.603,63.277C354.78,59.964 353.868,56.125 353.868,51.758C353.868,47.444 354.805,43.63 356.68,40.317C358.555,37.004 361.11,34.461 364.346,32.689C367.582,30.917 371.204,30.031 375.21,30.031C379.217,30.031 382.838,30.917 386.074,32.689C389.31,34.461 391.866,36.991 393.74,40.278C395.615,43.566 396.553,47.392 396.553,51.758C396.553,56.125 395.59,59.964 393.663,63.277C391.737,66.59 389.13,69.146 385.843,70.944C382.556,72.741 378.909,73.64 374.902,73.64ZM374.902,67.476C377.419,67.476 379.782,66.886 381.991,65.704C384.199,64.523 385.984,62.751 387.345,60.388C388.707,58.025 389.387,55.149 389.387,51.758C389.387,48.368 388.719,45.492 387.384,43.129C386.048,40.766 384.302,39.007 382.145,37.851C379.987,36.695 377.65,36.118 375.133,36.118C372.565,36.118 370.215,36.695 368.083,37.851C365.952,39.007 364.244,40.766 362.96,43.129C361.675,45.492 361.033,48.368 361.033,51.758C361.033,55.2 361.663,58.102 362.921,60.465C364.179,62.828 365.862,64.587 367.968,65.743C370.074,66.898 372.385,67.476 374.902,67.476Z" style="fill:white;fill-rule:nonzero;"/>
            <path d="M424.213,73.64C420.258,73.64 416.675,72.741 413.465,70.944C410.255,69.146 407.738,66.59 405.914,63.277C404.091,59.964 403.179,56.125 403.179,51.758C403.179,47.444 404.116,43.63 405.991,40.317C407.866,37.004 410.421,34.461 413.657,32.689C416.894,30.917 420.515,30.031 424.521,30.031C428.528,30.031 432.149,30.917 435.385,32.689C438.621,34.461 441.177,36.991 443.052,40.278C444.926,43.566 445.864,47.392 445.864,51.758C445.864,56.125 444.901,59.964 442.974,63.277C441.048,66.59 438.441,69.146 435.154,70.944C431.867,72.741 428.22,73.64 424.213,73.64ZM424.213,67.476C426.73,67.476 429.093,66.886 431.302,65.704C433.51,64.523 435.295,62.751 436.656,60.388C438.018,58.025 438.698,55.149 438.698,51.758C438.698,48.368 438.031,45.492 436.695,43.129C435.36,40.766 433.613,39.007 431.456,37.851C429.298,36.695 426.961,36.118 424.444,36.118C421.876,36.118 419.526,36.695 417.394,37.851C415.263,39.007 413.555,40.766 412.271,43.129C410.986,45.492 410.344,48.368 410.344,51.758C410.344,55.2 410.974,58.102 412.232,60.465C413.491,62.828 415.173,64.587 417.279,65.743C419.385,66.898 421.696,67.476 424.213,67.476Z" style="fill:white;fill-rule:nonzero;"/>
            <path d="M478.687,72.947L462.121,54.301L462.121,72.947L455.11,72.947L455.11,15.931L462.121,15.931L462.121,49.447L478.378,30.724L488.163,30.724L468.285,51.758L488.241,72.947L478.687,72.947Z" style="fill:white;fill-rule:nonzero;"/>
        </g>
    </g>
    <path d="M43.191,0L55.964,0L99.155,74.809L89.509,80.379C89.509,80.379 67.487,42.237 62.797,34.113C62.74,34.013 62.617,33.972 62.51,34.016C62.404,34.06 62.347,34.176 62.377,34.287C64.79,43.294 76.063,85.365 76.063,85.365L69.066,87.239C69.066,87.239 56.211,39.264 53.621,29.599C53.592,29.488 53.484,29.416 53.37,29.431C53.255,29.446 53.17,29.544 53.17,29.659L53.17,89.46L45.985,89.46L45.985,29.659C45.985,29.544 45.9,29.446 45.786,29.431C45.671,29.416 45.564,29.488 45.534,29.599C42.944,39.264 30.089,87.239 30.089,87.239L23.092,85.365C23.092,85.365 34.365,43.294 36.779,34.287C36.808,34.176 36.751,34.06 36.645,34.016C36.538,33.972 36.416,34.013 36.358,34.113C31.668,42.237 9.647,80.379 9.647,80.379L0,74.809L43.191,0Z" style="fill:rgb(3,199,178);"/>
</svg>
